<svg xmlns="http://www.w3.org/2000/svg" width="320" height="320" viewBox="0 0 320 320" fill="none">
<g id="Cactus monthly 31">
<rect width="320" height="320" fill="white"/>
<path id="month-region-31" data-region-id="month-region-31" d="M159.5 153.5L159 156.5L156 155.5H153.5L153 153.5L152.5 150.5L153 147L153.5 144V138V134L153 130V127.5L152.5 122V119L153 114L153.5 109.5V106V102.5L153 100L152.5 95L151.5 85.5V81.5V76L152.5 70L154.5 65.5L156.5 64V66.5V70.5L157.5 78L158 85L159 93.5L160 102L160.5 109.5L162 119V127V135L161.5 141.5L160 149L159.5 153.5Z" stroke="black"/>
<path id="month-region-30" data-region-id="month-region-30" d="M106.5 50L106 51.5H105.5L104 50L102 48.5L100 47L98.5 46V44.5V41.5V39L98 35.5L98.5 33L99 29.5L100.5 25.5L101.5 23L103.5 20L105 18L106.5 17.5L108 17H109.5L108.5 19.5L108 22L107.5 24.5L107 29V34V40V46L106.5 50Z" stroke="black"/>
<path id="month-region-29" data-region-id="month-region-29" d="M157 235.5L157.5 248H152V242.5L151.5 235L151 227L150 219L148.5 210L147.5 201L146 191.5L145 184L144 178L143.5 168.5L143 162L143.5 158L145.5 156L147 156.5L148.5 160.5L149.5 164.5L151 173L151.5 181.5L152 189.5L153.5 199.5L155 209L156 216L156.5 224.5L157 235.5Z" stroke="black"/>
<path id="month-region-28" data-region-id="month-region-28" d="M143 248H152L151.5 243V239.5V234.5L151 228L150 220.5L149 214L148.5 207.5L146.5 195.5L145.5 187.5L144.5 179.5L144 174L143.5 169.5L143.233 165L143 159.5H142L140.5 162L139.5 165L139 171.5L138 180L137.5 189.5L137 196.5V205.5L137.5 214L138 222.5L138.5 228L139.5 233.5L141 240.5L142.5 245.5L143 248Z" stroke="black"/>
<path id="month-region-27" data-region-id="month-region-27" d="M106 51.5L106.5 50L107 46V40V34V29L107.5 24.5L108 22L108.5 19.5L109.5 17L111.5 15.5H114L115.5 16L117 18L117.5 21.5L118 25.5V29.5V32.5L117.5 35.5L117 39L115.5 43.5L114 47L112.5 50L111 52.5L109 54.5L108 55L106.5 53L106 52" stroke="black"/>
<path id="month-region-26" data-region-id="month-region-26" d="M157.5 247.5L158 248H163.5L164.5 241.5L165.5 232L166.5 224L167.5 212.5V204V196.5L166.5 189.5L165 182L162.5 173.5L159 164L155.5 157.5L153 155.5L149 155L146 155.5L147 156.5L148.5 159.5L150 166L150.5 172L151.5 177.5L152 185L152.5 193.5L153.5 202L154.5 208.5L156 216.5L157 231L157.5 242.5V247.5Z" stroke="black"/>
<path id="month-region-25" data-region-id="month-region-25" d="M164.5 240.5L163.5 248H168H172.5L173 243.5L173.5 237.5L174.5 231.5L175.5 225L176.5 218V211.5V204.5L176 197L174.5 187L173.5 180L171.5 169.5L169 164L166 160L161 157.5L157 155.5H155L154 156L157.5 160.5L160 166L163.5 176L165.5 183.5L167 190L167.5 196.5V204.5V213.5L167 220.5L165.5 232.5L164.5 240.5Z" stroke="black"/>
<path id="month-region-24" data-region-id="month-region-24" d="M172.5 247.5H178.5L179 245.5L179.5 242.5L180 239.5L181 235L181.5 231L182.5 226.5L183.5 220.5L184.5 214.5L185 208V202V195L184.5 190L183.5 183.5L182.5 179L181 176L179 171.5L176 167.5L173.5 164.5L170.5 162L168 160L167.5 161L168.5 163L170.5 166L172 173L173.5 180.5L174.5 187L175 191L176.5 199.742V207.5V214.5L176 220.5L175 227L174 234L173 242L172.5 247.5Z" stroke="black"/>
<path id="month-region-23" data-region-id="month-region-23" d="M132.5 238.5L134.5 247H128L127 245.5L125 237.5L120.5 224L118 210L117.5 201.5V188L120 177.5L124.5 168.5L131.5 161L135.5 158H138.5L137 160L132 166.5L129 173.5L126.5 183.5L124.5 194.5V207L126 218.5L129 228.5L132.5 238.5Z" stroke="black"/>
<path id="month-region-22" data-region-id="month-region-22" d="M138 247.5L143 247L142 243L141 239L139.5 233.5L138.5 227.5L138 222L137.5 214V207L137 200L137.5 188L138.5 176L139.5 167L140.5 162L142 159.5L143.5 158.5L144.5 156L142.5 155.5L139 157.5L136.5 160.5L134 163.5L132.5 166.5L130.5 169.5L129 173.5L127.5 178.5L126 185.5L124.5 194.5V203.5L125 211.5L126.5 220L128.5 226.5L131 234.5L133.5 241.5L134 247L138 247.5Z" stroke="black"/>
<path id="month-region-21" data-region-id="month-region-21" d="M183.5 184.5L183.3 183.5M183.3 183.5L182.5 179.5L181 176L186 173.5L192 169L198 163L201.5 159.5L206 151.5L208.5 144L211.5 135L214 124L216 114.5L218 106L221 98L223 93.5L227 88L230 86H230.5L229.5 87.5L228.5 89L226 94L224.5 99.5L223 106.5L221.5 113.5L220.5 120L219 129.5L217.5 139.5L216 145L214.5 148.5L211 155.5L205.5 162.5L198.5 170L191 176L188.5 178.5L186 181V182L184.5 183.5H183.3Z" stroke="black"/>
<path id="month-region-20" data-region-id="month-region-20" d="M152.5 149.5L153.5 155L152 155.5L148.5 155L146 155.5H143.5L143 154.5L142.5 150L141.5 142.5L142 135V125.5V115.5V109.5V98L142.5 91L144.5 81.5L146 76L147.5 72.5L149.5 69.5L152.5 66L154.5 65L152.5 70L151.5 77.5V83L152.5 91.5L153.5 100.5V109L152.5 119V126L153.5 135.5V142.5L152.5 149.5Z" stroke="black"/>
<path id="month-region-19" data-region-id="month-region-19" d="M121 108L118.5 105.5L122 101L124.5 96.5L127.5 91.5L129 87L130 82.5L130.5 78L129 73.5L127.5 70.5L130.5 71.5L132.5 75L135.5 80.5L136 85L135.5 92.5L133.5 98L131 103.5L126.5 108L122 110L121 108Z" stroke="black"/>
<path id="month-region-18" data-region-id="month-region-18" d="M110 99.5H113L113.5 96L115 92V88L116 83L117.5 78.5L119 74.5L121 71.5L124 69.5V68L119.5 67.5L115 69L110.5 72L108 75.5L105.5 79.5L104 85.5L103.5 91.5L104 98L105.5 99.5H110Z" stroke="black"/>
<path id="month-region-17" data-region-id="month-region-17" d="M116 103.5L118.5 105.5L121 101.5L123.5 99L124.5 96L127 92.5L128 89.5L129 87L130 83.5L130.5 80L130 77L129 74L127 70L124 69.5L122 70.5L119 75L117.5 78.5L116 85L115 90.5L114 94L113 99.5L113.5 101L116 103.5Z" stroke="black"/>
<path id="month-region-16" data-region-id="month-region-16" d="M207 95.5L205 96.5L203 98.5L201 101.5L200 103.5L198.558 105.407L198.058 113.407L199.5 120L201 124L205 129L207 130.5L209.5 131.5H212L212.5 129.5L213.5 126L214.5 121L216 115L217.5 108.5L219 103L220 100L217 97.5L214.5 95H213C211.502 94.56 210.649 94.4081 209 95L207 95.5ZM207 95.5V96.5" stroke="black"/>
<path id="month-region-15" data-region-id="month-region-15" d="M191 189.5L185 190.5V194.5L189 195.5H192.5L198 194L205 191L213.5 187L218 183.5L225 177L230.5 171L234 165L238 156.5L240 147L242 139L243 130L245 118L246.5 108.5L246 100.5L245.5 95L242 88.5L239 86.5L236 85L237 87L238 94V100L237.5 105L235 115L232.5 123L231.5 130L230.5 136.5L229 144.5L226.5 152.5L223 161L220 167.5L215.5 173.5L210 180L204.5 184L199.5 187L191 189.5Z" stroke="black"/>
<path id="month-region-14" data-region-id="month-region-14" d="M187 186L184 188L183.5 185L184.5 183.5L185.5 182L186.5 180.5L189.5 177.5L192 175.5L197.5 170L200 167.5L204 164L209.5 157.5L212.5 152.5L215.5 145L218 136L219.5 129L220.5 120.5L221.5 114.5L222.5 109L224.5 98.5L227 92L230 86.5L232.5 86L231 89L229.5 94L228 100L227 106.5L226 115L224.5 122L223 131.5L220.5 140L217.5 151L213.5 160.5L211 165L204 172.5L195.5 179.5L187 186Z" stroke="black"/>
<path id="month-region-13" data-region-id="month-region-13" d="M187 185.5L184 188L184.5 190.5L188 190L193 189L199.5 187L204 184.5L209.5 180L214 176L218.5 170L221 165.5L223 161L225 156.5L227 151L229.5 143L230.5 139L231 132L232 126L233.5 119L235.5 111L237.5 104.5L238 99V92L236.5 86.5L234 85H232.5L231 88L229.5 93L228 99L227 105.5L226 114L225 121L223 130.5L220.5 139L217.5 150L214.5 159L211.5 164.5L205 171.5L195.5 179L187 185.5Z" stroke="black"/>
<path id="month-region-12" data-region-id="month-region-12" d="M172.5 150.5L168.5 160.5L172 163L174 165.5L176.5 168L179.5 164L182.5 158L186.5 150.5L188.5 142L190 135L191 128L191.5 118V110L190.5 102.5L189 92L186.5 83L184 76.5L181 70.5L176 65.5L173.5 64H172L169.5 62.5L165 62H162.5L166 64L169 67.5L172 75.5L176 89.5L178.5 99.5L179.5 107L178.5 116L177 127L175 141L172.5 150.5Z" stroke="black"/>
<path id="month-region-11" data-region-id="month-region-11" d="M172.5 150.5L169 160.5H166.5L165 159L164.5 158L165 155.5L166.5 150.5L167.5 146L168 140.5L168.5 135.5V129.5V124L168 116L167.5 110L166.5 100L165 89.5L164 80L163.5 73.5L162 66.5L160 64L159.5 62.5L163 62L166.5 64.5L169 67.5L172 75.5L175.924 89.2968L178.5 99L179 107L178.5 115.5L177 127L175 140.5L172.5 150.5Z" stroke="black"/>
<path id="month-region-10" data-region-id="month-region-10" d="M159.5 153.5L159 156.5L161.5 157.5L164 159L165 156.5L165.5 154.5L166.5 151.5L167 148L167.5 144.5L168 141.5V138L168.5 134V130V126.5V122V119.5L168 115.5V112.5L167.5 108L167 104L166.5 99.5L166 94.5L165.5 90.5L165 87.5L164.5 82.5L164 79.5L163.5 75.5L163 72.5L162.5 68.5L161.5 66L160.5 64.5L159.5 63H158.5L156.5 64V66.5V70.5L157.5 78L158 85L159 93.5L160 102L160.5 109.5L162 119V127V135L161.5 141.5L160 149L159.5 153.5Z" stroke="black"/>
<path id="month-region-9" data-region-id="month-region-9" d="M117.5 161.5L127 165.5L125 168L123.5 170.5L121 174.5L120.5 175L115 174L111.5 172.5L107 170L103 167L99.5 163.5L96 158.5L93.5 153L92 148.5L90.5 142L89.5 133L89 125.5V121.5L89.5 114L91.5 108L93 104.5L94.5 103L97.5 102.5L96.5 106.5L97.5 112.5L99 121.5L101 129.5L102.5 136.5L105.5 147.5L110.5 156L117.5 161.5Z" stroke="black"/>
<path id="month-region-8" data-region-id="month-region-8" d="M117.5 161.5L127 165.5L129.5 163L128.5 161.5L126 157.5L123.5 154L121.5 149.5L118.5 141.5L116.5 135.5L114.5 128.5L113 123L111.5 116.5L109 110L107.5 105.5L105 102L103.5 100.5H101.5H99.5L97.5 102.5L96.5 106.5L97.5 112.5L99 121.5L101 129.5L102.5 136.5L105.5 147.5L110.5 156L117.5 161.5Z" stroke="black"/>
<path id="month-region-7" data-region-id="month-region-7" d="M131.5 156.5L132.5 160L130.5 162L129.5 162.5L127.5 160.5L126 158L124.5 155L122.5 151.5L121 149L120 145.5L118.5 142.5L117.5 138.5L116 133.5L115 130.5L114.5 127L113 123L112 119L111 115.5L110 112.5L109 109.5L107.5 106L105.5 103L104 101.5L102.5 100.5V99L104 98.5L107 99L108.5 100.5L112 103L115 106.5L116.5 110L119 116L120.5 121L122 128L123.5 134L125.5 140L128 146L130.5 152L131.5 156.5Z" stroke="black"/>
<path id="month-region-6" data-region-id="month-region-6" d="M131.5 156.5L132.5 160L134 159.5L135 158.5V158V156.5L135.5 154.5V152.5L135 149L134.5 144.5L134 140L133 136L132.5 133L131 129L129.5 125.5L128.5 122L126.5 118L125 115L123.5 112.5L121.5 109L120 107L117.5 104.5L115.5 103L113.5 100.5L113 99.5H110.5L107 99L108.5 100.5L112 103L115 106.5L116.5 110L119 116L120.5 121L122 128L123.5 134L125.5 140L128 146L130.5 152L131.5 156.5Z" stroke="black"/>
<path id="month-region-5" data-region-id="month-region-5" d="M100.5 91.5L103.5 93.5V94V95L104 98L103 98.5L102 100H99L97 102L94.5 101.5L91.5 100L88.5 98.5L85.5 96L83 93.5L80.5 90L78 87L76.5 83.5L74 79L72.5 74.5L72 70V65.5V60.5L73 58L74.5 55L76.5 53V54.5L79.5 61L83.5 69.5L87 76.5L90.5 83L93 87L97 89.5L100.5 91.5Z" stroke="black"/>
<path id="month-region-4" data-region-id="month-region-4" d="M100.5 91.5L103.5 93.5V92V90V87.5L104 85L105 82.5L106 79.5L107 77L105.5 74L103.5 71L100.5 67.5L98 65.5L95.5 64L93 62L91 59L89 56.5L87.5 54.5L85.5 52L83.5 50L81 48.5L79 48L77.5 48.5L77 50.5L76.5 53V54.5L79.5 61L83.5 69.5L87 76.5L90.5 83L93 87L97 89.5L100.5 91.5Z" stroke="black"/>
<path id="month-region-3" data-region-id="month-region-3" d="M108 63L110 67.5V69L110.5 71V72L110 73.5L108 76L107 77L106.5 76.5L105.5 74.5L104.5 73L103.5 71L101.5 69L99.5 67L97 65L95 63.5L93 62L91.5 60.5L90 58.5L88 55.5L86 53L84 50.5L82 49L79.5 48.5L78.5 48L80 47L81 46H83L84.5 45L87 45.5L90.5 46.5L93 48L96.5 50.5L100.5 53.5L105 58L108 63Z" stroke="black"/>
<path id="month-region-2" data-region-id="month-region-2" d="M108 63L110 67.5H110.5L112 69L113.5 70.5L114.5 69.5L114 68.5L113.5 67V66L113 64.5L112 62.5L111 60L110 58L109 56L108.5 55V54.5L107.5 54L106 52L104.5 51L103 49L100.5 47.5L99 46L96 45L92.5 44L89.5 43.5H87.5L86 44L84.5 45L87 45.5L90.5 46.5L93 48L96.5 50.5L100.5 53.5L105 58L108 63Z" stroke="black"/>
<path id="month-region-1" data-region-id="month-region-1" d="M115 57.5L110.5 59.5L109.5 57L108.5 55L109.5 54L111 52L112 51L113.5 48.5L114.5 46.5L115.5 43L116.5 40L117.5 36L118 32V28.5V25L117.5 22.5L117 19.5V17L119.5 18.5L122 20L123.5 22L124.5 25L126 30.5V34L125.5 39.5L125 43.5L123.5 47L121.5 51L118.5 54.5L115 57.5Z" stroke="black"/>
<path id="Vector 105" d="M123 262.5C123.214 263.505 123.406 264.017 125 264C147.551 266.398 160.684 266.666 185 265C186.44 264.969 187.08 264.486 188 263C188.914 256.744 189.365 253.15 190 246.5C162.034 248.672 146.887 248.363 120.5 246C121.086 252.427 121.553 256.035 123 262.5Z" fill="#823800"/>
<path id="Vector 104" d="M179 306L184.5 265C161.131 266.726 148.093 266.674 125 264L132 305C154.948 310.318 165.072 310.357 179 306Z" fill="#A64902"/>
<path id="Vector_1" d="M103.727 10.8214C103.727 11.2452 104.434 12.5165 105.21 13.7172L106.694 15.8361L104.01 18.7319C102.456 20.3564 101.185 21.769 101.114 21.9809C101.043 22.1221 99.9839 21.9103 98.8538 21.4865C97.5119 20.9921 96.523 20.9921 96.3112 21.4158C96.0286 21.769 96.8056 22.2634 98.0063 22.4753C100.549 22.9697 100.478 22.899 99.207 26.6424C98.6419 28.1962 98.0063 30.3858 97.7237 31.5158C97.3 33.4228 97.1587 33.4934 94.1216 33.0697C92.4265 32.8578 91.014 32.9284 91.014 33.2816C91.014 33.6347 92.4265 34.1291 94.1216 34.341C97.0881 34.8354 97.2293 34.9061 97.5825 37.8019C98.1475 41.969 97.4412 44.8648 96.0286 44.2291C95.393 44.0172 93.4154 43.5934 91.579 43.4522C89.0363 43.1697 88.1888 42.7459 88.1888 41.8983C88.1888 41.1921 87.6944 40.062 87.1293 39.2851C86.2112 38.0137 86.1405 38.0137 86.0699 39.2144C86.0699 39.9207 86.3524 41.0508 86.7056 41.7571C87.2706 42.7459 86.8468 43.1697 84.0923 44.1585C82.2559 44.7941 80.0664 45.9242 79.2895 46.7011C77.7357 48.0431 77.7357 48.0431 75.4049 45.6417C73.9217 44.0878 72.8622 43.4522 72.3678 43.9466C71.8028 44.5116 73.3566 46.2067 76.3231 48.255C76.6762 48.4669 75.8993 50.727 74.628 53.2697C72.2266 58.1431 72.3678 58.0724 68.2713 56.9424C67.4238 56.6599 67 56.9424 67 57.6487C67 58.4962 67.7063 58.7787 69.5427 58.7787C71.8734 58.7787 72.0853 58.92 71.6615 60.3326C71.4496 61.2508 71.2378 63.7934 71.2378 65.9829C71.2378 70.0794 71.2378 70.0794 69.1189 70.0794C67.9888 70.0794 67 70.3619 67 70.7857C67 71.1389 67.9182 71.492 69.0482 71.492C71.4496 71.492 71.5909 71.6333 72.2266 75.0941C72.6503 77.5661 72.5797 77.7074 69.8252 78.8375C68.2007 79.4731 67.1413 80.3207 67.3531 80.6738C67.6357 81.0976 68.8364 80.8151 70.5315 79.9675L73.2154 78.6256L75.1224 82.5102L77.0294 86.3242L75.3343 87.6661C74.4867 88.443 73.9217 89.2906 74.2042 89.5731C74.5573 89.8556 75.4049 89.5025 76.2524 88.7256C77.7357 87.3836 77.8063 87.3836 78.9364 89.1493C79.572 90.0675 80.9846 91.9039 82.044 93.1752L84.0217 95.4353L81.3377 97.9074C79.572 99.5318 79.0776 100.45 79.7839 100.45C80.3489 100.45 81.7615 99.5318 82.8916 98.3311C84.8692 96.2829 84.9398 96.2123 86.3524 97.5542C87.2 98.2605 89.1776 99.6025 90.8021 100.521L93.6979 102.286L91.6496 106.383C90.5902 108.714 89.5307 110.833 89.4601 111.186C89.3189 111.539 87.9063 111.327 86.2818 110.762C84.3042 110.056 83.1035 109.985 82.821 110.409C82.2559 111.398 82.3266 111.398 86.0699 112.174C87.8356 112.598 89.1776 113.234 89.107 113.658C89.0363 114.081 88.8245 116.271 88.6126 118.531L88.33 122.698L85.7874 122.91C82.3972 123.193 82.5384 124.464 85.9287 124.464H88.5419V127.784C88.5419 129.691 88.8245 133.787 89.107 136.895L89.672 142.616L87.9769 142.333C86.9881 142.121 85.9993 142.333 85.7874 142.757C85.4342 143.251 86.1405 143.534 87.6944 143.534C89.8133 143.534 90.1664 143.816 90.5196 145.441C90.7314 146.571 91.1552 147.984 91.3671 148.619C91.6496 149.325 91.579 149.891 91.1552 149.891C89.8133 149.891 85.0105 152.221 85.858 152.504C86.2818 152.645 87.8356 152.292 89.3189 151.656C90.7314 151.091 92.0028 150.667 92.0028 150.738C92.0734 150.879 92.8503 152.574 93.7685 154.623L95.4636 158.295L93.4154 160.061C92.144 161.121 91.7909 161.827 92.3559 161.897C92.921 161.897 93.9804 161.403 94.6867 160.697C95.393 160.061 96.0286 159.708 96.1699 159.849C96.2405 159.991 97.7237 161.827 99.4188 163.875L102.456 167.689L100.125 170.091C98.8538 171.362 98.0769 172.704 98.3594 172.986C98.6419 173.339 99.9133 172.421 101.114 171.009L103.374 168.537L107.188 170.867C109.307 172.139 111.355 173.269 111.708 173.41C112.203 173.551 112.132 174.47 111.638 176.023C111.143 177.295 110.931 178.566 111.143 178.778C111.779 179.414 112.909 177.295 112.909 175.458C112.909 174.258 113.192 173.904 114.18 174.187C114.816 174.328 116.441 174.752 117.712 174.964C119.407 175.317 119.972 175.741 119.689 176.518C119.478 177.083 119.054 178.354 118.842 179.343C118.489 180.756 117.994 181.038 116.158 180.967C112.909 180.756 112.415 180.897 113.615 181.674C114.18 182.027 115.381 182.38 116.299 182.38C117.712 182.38 117.924 182.663 117.571 184.287C117.359 185.417 117.006 187.96 116.723 190.079C116.299 193.751 116.229 193.822 114.251 193.398C111.496 192.904 111.567 194.175 114.322 194.74C116.299 195.164 116.441 195.446 116.441 198.342V201.45H113.686C112.132 201.45 110.649 201.803 110.366 202.227C110.084 202.792 110.931 202.933 113.121 202.792C116.723 202.509 116.794 202.58 117.288 208.442C117.5 210.702 117.288 210.914 115.169 211.479C113.898 211.832 113.05 212.397 113.262 212.751C113.474 213.174 114.392 213.104 115.522 212.68C116.511 212.327 117.429 212.115 117.5 212.186C117.994 212.821 119.689 222.003 119.336 222.215C119.124 222.356 117.712 222.639 116.299 222.921C114.816 223.204 113.615 223.769 113.615 224.193C113.615 224.616 114.322 224.687 115.593 224.404C119.831 223.204 120.043 223.416 121.455 228.289C122.091 230.832 122.656 232.88 122.585 232.951C122.515 232.951 121.385 233.374 120.184 233.869C118.913 234.434 117.853 235.14 117.853 235.493C117.853 236.27 120.537 235.564 121.95 234.434C122.444 234.081 122.938 233.869 123.009 234.01C123.715 235.069 126.399 244.746 126.046 245.028C125.834 245.311 124.28 245.452 122.727 245.381L119.76 245.24L120.254 250.396C121.031 257.883 122.303 263.462 123.574 264.451C124.422 265.087 125.057 267.983 125.834 274.057C126.47 278.789 127.953 287.971 129.224 294.327L131.414 305.981L134.027 306.688C141.09 308.595 156.558 310.36 162.703 309.936C168.847 309.583 178.171 307.464 179.301 306.264C179.866 305.628 184.951 270.808 184.951 267.559C184.951 266.217 185.445 265.511 186.646 265.087C188.482 264.381 189.471 260.567 190.319 251.102L190.813 246.088L184.951 246.441C181.561 246.723 179.23 246.582 179.442 246.229C179.654 245.876 180.219 243.262 180.713 240.437C181.349 236.482 181.773 235.352 182.55 235.634C183.115 235.846 184.033 236.27 184.598 236.482C185.163 236.694 185.657 236.553 185.657 236.129C185.657 235.634 185.163 235.14 184.598 234.999C184.033 234.787 183.115 234.504 182.55 234.363C181.702 234.081 181.702 233.445 182.267 231.114L183.044 228.148L186.081 228.642C188.059 228.925 189.189 228.783 189.189 228.36C189.189 227.936 187.988 227.441 186.575 227.23C185.092 226.947 183.68 226.735 183.468 226.665C183.256 226.594 183.397 224.758 183.821 222.639C184.527 219.037 184.739 218.754 186.505 218.966C187.494 219.107 188.553 218.825 188.836 218.472C189.118 217.977 188.341 217.695 186.717 217.695C184.598 217.695 184.245 217.483 184.527 216.494C184.668 215.788 185.022 213.457 185.304 211.267L185.728 207.312L188.906 207.665C190.954 207.877 192.014 207.736 192.014 207.171C192.014 206.747 190.743 206.394 188.836 206.394H185.657V201.097V195.8H187.847C189.895 195.8 189.966 195.941 189.542 197.918C189.259 199.26 189.33 200.037 189.824 200.037C190.319 200.037 190.813 199.049 191.096 197.918C191.378 196.365 191.873 195.8 193.003 195.8C193.78 195.8 195.122 195.588 195.969 195.376C197.24 195.023 197.664 195.517 198.653 197.918C199.289 199.472 200.136 200.602 200.489 200.39C200.913 200.108 200.631 198.837 199.783 197.142L198.3 194.387L200.277 193.681C201.408 193.257 203.173 192.551 204.233 192.127C206.069 191.421 206.422 191.562 207.976 193.398C208.894 194.599 209.601 195.023 209.671 194.458C209.671 193.893 209.106 192.833 208.47 192.056C207.694 191.138 207.482 190.573 207.976 190.361C208.4 190.22 210.448 189.019 212.567 187.748L216.31 185.346L218.076 187.889C220.266 191.209 220.195 191.138 220.689 190.644C220.901 190.432 220.266 189.019 219.277 187.536L217.37 184.852L221.113 181.532L224.856 178.283L227.187 179.979C228.388 180.967 229.447 181.391 229.447 180.897C229.447 180.473 228.67 179.484 227.682 178.707L225.987 177.365L229.024 173.551C230.719 171.503 232.484 169.243 232.838 168.537C233.473 167.336 233.685 167.336 235.31 168.466C237.64 169.949 238.347 169.172 236.157 167.407L234.391 166.065L235.804 163.239L237.217 160.485L239.759 161.544C242.655 162.745 243.573 162.886 243.573 162.039C243.573 161.686 242.302 160.979 240.748 160.485C239.194 159.991 237.923 159.425 237.923 159.214C237.923 159.072 238.417 157.165 239.053 155.046C240.112 151.303 240.254 151.162 242.231 151.586C243.291 151.798 244.421 151.656 244.633 151.303C244.915 150.879 244.138 150.597 242.938 150.597C241.242 150.597 240.748 150.244 240.748 149.255C240.748 147.842 242.019 140.567 242.373 140.285C242.443 140.144 243.785 140.356 245.339 140.709C247.034 141.062 248.447 141.062 248.8 140.709C249.153 140.356 247.952 139.861 245.763 139.579C243.291 139.296 242.161 138.802 242.443 138.237C242.584 137.813 242.938 135.623 243.22 133.434L243.714 129.408H246.469C248.023 129.408 249.224 129.055 249.224 128.702C249.224 128.278 248.094 127.995 246.681 127.995H244.068L244.562 125.312C244.845 123.899 245.198 121.003 245.48 118.955C245.833 115.847 246.116 115.282 247.034 115.706C248.8 116.412 249.577 116.412 249.789 115.635C249.93 115.212 249.435 114.788 248.729 114.717C246.681 114.293 246.187 113.375 246.681 110.762C247.175 108.29 247.246 108.219 250.283 108.219C252.049 108.219 253.461 107.866 253.461 107.513C253.461 107.089 252.049 106.807 250.283 106.807H247.105V103.699C247.105 102.004 246.893 100.097 246.681 99.4612C246.328 98.6137 246.822 98.1899 248.447 97.9074C251.696 97.2717 252.19 95.8591 249.012 96.4241C246.61 96.7773 246.469 96.7067 245.621 94.2346C245.198 92.8221 244.138 90.7032 243.361 89.5731L241.949 87.5249L244.138 85.5472C246.257 83.6402 247.034 82.0864 245.904 82.0864C245.551 82.0864 244.28 83.2871 243.079 84.6997C241.596 86.3948 240.607 87.1011 240.254 86.6067C239.053 84.9822 234.956 83.499 233.685 84.2053C231.637 85.2647 231.072 85.0528 230.154 82.7927C229.659 81.592 228.812 80.6738 228.317 80.6738C226.975 80.6738 227.046 81.1682 228.741 83.3577L230.154 85.1235L228.317 86.3242C227.329 87.0304 225.422 89.0787 224.08 90.9151C221.042 95.2941 221.184 95.1528 219.912 94.0934C219.277 93.599 218.641 93.3871 218.359 93.6696C218.076 93.8815 218.57 94.5878 219.418 95.2234C221.113 96.4241 221.254 96.7773 220.266 98.3311C219.771 99.1787 219.347 98.9668 217.864 97.413L216.028 95.4353L217.44 92.7514C218.641 90.2794 218.712 89.1493 217.44 89.1493C217.158 89.1493 216.522 90.35 216.028 91.9039C215.18 94.5878 215.11 94.5878 212.143 94.2346C210.519 94.0934 208.541 94.2346 207.835 94.6584C206.705 95.2941 206.21 95.0822 204.939 93.5283C204.162 92.4689 203.173 91.8333 202.891 92.1864C202.608 92.4689 202.961 93.3871 203.738 94.164L205.151 95.5766L202.467 98.4018C200.984 99.9556 199.783 101.651 199.783 102.216C199.783 103.84 198.582 104.052 195.828 102.922C194.415 102.357 193.073 102.004 192.861 102.145C192.226 102.851 193.497 103.911 195.545 104.335C196.675 104.617 197.805 105.041 197.947 105.253C198.088 105.535 198.017 107.937 197.735 110.621C197.311 115.494 197.311 115.494 194.698 116.412L192.014 117.33L191.943 112.245C191.943 109.42 191.661 105.677 191.378 103.77C190.813 100.45 190.813 100.45 192.861 100.45C193.921 100.45 194.839 100.097 194.839 99.7437C194.839 99.3199 193.921 99.0374 192.791 99.0374C191.025 99.0374 190.672 98.6843 190.319 96.5654C189.683 93.3871 190.107 92.822 193.073 92.257C194.415 92.0451 195.545 91.4801 195.545 91.1269C195.545 90.4913 193.991 90.6325 190.531 91.692C189.612 91.9039 189.189 91.2682 188.553 88.8668C187.423 84.3465 187.564 83.5696 189.542 83.0752C190.531 82.8633 191.308 82.3689 191.308 82.0158C191.308 81.1682 190.107 81.2389 188.482 82.0864C187.352 82.6514 186.999 82.2277 185.375 78.2018C184.386 75.6591 183.538 73.4696 183.538 73.2577C183.538 73.1165 184.88 72.2689 186.575 71.4214C188.2 70.5738 189.118 69.7263 188.624 69.585C188.129 69.3731 186.575 69.9382 185.233 70.7857L182.62 72.2689L181.561 70.6445C180.925 69.7263 179.371 68.0312 178.1 66.7598C175.769 64.4997 175.769 64.4291 176.829 62.3808C178.029 59.9088 178.1 59.485 177.252 59.485C176.899 59.485 176.264 60.4032 175.769 61.6039C175.275 62.734 174.71 63.7228 174.427 63.7228C174.215 63.7228 172.238 63.0871 170.119 62.2396C166.446 60.827 162.985 60.7564 158.677 62.0277C157.688 62.3102 157.405 61.9571 157.405 60.6151C157.405 59.6263 157.052 58.6375 156.558 58.355C155.993 58.0018 155.852 58.5668 156.134 60.2619C156.487 62.4515 156.275 62.8752 153.874 64.4997L151.261 66.4067L149.071 64.2172C147.871 63.0165 146.599 62.3102 146.317 62.5927C146.034 62.8752 146.811 64.0759 148.153 65.1354L150.484 67.113L148.153 70.5738C146.811 72.4102 145.752 74.0347 145.681 74.1759C145.61 74.2465 144.763 74.0347 143.774 73.6815C142.573 73.1871 141.796 73.1871 141.514 73.6109C141.231 74.0347 142.008 74.5291 143.209 74.7409C144.41 75.0235 145.399 75.2354 145.399 75.306C145.399 75.4473 144.904 76.9305 144.268 78.6962C143.209 81.9451 143.138 81.9451 139.678 82.2277L136.217 82.4395L135.157 78.8375C134.592 76.8598 133.603 74.8116 133.038 74.3172C132.05 73.5403 132.191 73.1871 134.239 71.4214C135.51 70.3619 136.358 69.2319 136.005 68.9494C135.722 68.6668 134.592 69.3025 133.533 70.2913L131.485 72.1983L130.143 70.7151C128.447 68.8081 124.916 67.2543 122.161 67.2543C120.113 67.2543 120.043 67.113 120.466 65.1354C120.678 63.7934 120.537 63.0165 120.043 63.0165C119.619 63.0165 119.266 63.9347 119.266 65.0647C119.266 66.4067 118.842 67.1836 118.065 67.4661C117.359 67.6074 116.299 68.0312 115.664 68.2431C114.745 68.6668 114.392 68.2431 114.039 66.4067C113.827 65.1354 113.121 63.2284 112.627 62.0983C111.638 60.2619 111.638 60.1207 113.615 59.1319C115.593 58.1431 115.593 58.1431 116.441 60.4032C117.076 62.0277 117.429 62.3102 117.641 61.4626C117.782 60.7564 117.641 59.6969 117.217 58.9906C116.652 58.0018 117.006 57.2249 118.701 55.4592L120.89 53.199L123.433 54.9648C126.187 56.8011 127.035 57.0836 127.035 55.9536C127.035 55.6004 125.834 54.6822 124.28 53.9053L121.596 52.4927L123.433 48.6081C125.199 44.7941 125.34 44.6529 127.6 45.006C130.425 45.5004 130.708 44.0878 127.882 43.5228C125.905 43.099 125.905 43.0284 126.187 38.7907C126.54 32.7872 126.399 32.999 130.072 33.2816C132.544 33.4228 133.392 33.2109 133.392 32.434C133.392 31.6571 132.615 31.5158 129.86 31.7983L126.329 32.1515V29.8914C126.329 28.6907 125.834 26.4305 125.199 24.9473C124.068 22.1221 124.068 22.1221 126.117 20.3564C127.176 19.4382 127.882 18.3788 127.529 18.0963C127.247 17.8137 126.258 18.3081 125.269 19.2263L123.503 20.9215L121.173 18.7319C119.972 17.5312 118.206 16.1893 117.288 15.6949C116.299 15.2005 115.805 14.4942 116.017 13.8585C116.229 13.2935 116.652 12.3753 116.864 11.8102C117.076 11.2452 116.935 10.7508 116.511 10.7508C116.087 10.7508 115.452 11.4571 115.099 12.3753C114.604 13.576 113.545 14.2116 111.214 14.7767L107.894 15.483L106.482 12.799C105.21 10.1858 103.727 9.12631 103.727 10.8214ZM115.31 17.7431C118.136 20.8508 117.924 34.9767 115.028 42.6753C113.545 46.5599 109.378 53.8347 108.601 53.8347C107.612 53.8347 106.482 51.7158 107.047 50.8683C107.329 50.3739 107.753 43.5934 107.965 35.8242C108.318 24.0998 108.601 21.2746 109.66 19.0144C111.143 16.048 113.333 15.5536 115.31 17.7431ZM107.612 20.9921C106.906 22.9697 106.623 27.2075 106.552 34.8354C106.552 43.876 106.341 46.0655 105.493 46.7718C104.857 47.2662 104.222 47.4781 104.01 47.2662C103.798 47.0543 103.445 43.2403 103.233 38.72C102.738 29.6795 104.01 22.9697 106.694 19.5088C108.601 17.1781 108.813 17.6019 107.612 20.9921ZM103.798 22.1928C102.103 25.583 101.961 26.6424 101.961 34.7648C101.961 39.6382 102.173 44.7235 102.527 46.0655L103.021 48.5375L101.538 46.9836C100.408 45.9242 99.9839 44.5116 99.9133 42.2515C99.8426 40.4858 99.5601 39.0025 99.207 39.0025C98.2888 39.0025 99.207 29.962 100.549 26.3599C101.467 23.7466 104.716 18.52 105.422 18.52C105.564 18.52 104.787 20.2151 103.798 22.1928ZM120.89 24.4529C123.08 30.9508 122.161 40.4857 118.701 47.1955C116.794 51.0095 109.378 57.578 109.378 55.5298C109.378 55.3179 110.296 53.9759 111.496 52.5634C117.217 45.4298 120.184 31.7984 118.347 21.3452C117.853 18.52 117.924 18.3081 118.771 19.5795C119.336 20.3564 120.254 22.5459 120.89 24.4529ZM123.786 24.806C126.117 31.9396 125.764 40.627 122.868 47.1249C121.173 50.8683 116.37 56.3773 114.957 56.0948C114.322 56.0242 113.403 56.3773 112.909 57.013C111.991 58.0724 110.084 58.4962 110.084 57.5074C110.084 57.2249 111.496 56.1654 113.192 55.1766C119.619 51.2214 123.433 42.8872 123.503 32.6459C123.503 27.7019 123.15 25.9361 121.667 22.8284C120.113 19.3676 120.043 19.0851 121.314 20.2151C122.091 20.9214 123.221 22.9697 123.786 24.806ZM98.5713 44.7941C98.3594 45.3592 98.1475 45.1473 98.1475 44.3704C98.0769 43.5934 98.2888 43.1697 98.5007 43.4522C98.7126 43.6641 98.7832 44.2997 98.5713 44.7941ZM96.1699 45.8536C100.266 47.1249 106.976 53.3403 109.378 58.0724C111.214 61.6745 113.757 68.7375 113.333 69.1612C112.909 69.585 109.801 65.2766 107.612 61.1095C105.634 57.4368 97.7944 49.7382 93.0622 46.8424C91.7203 46.0655 89.7426 45.3592 88.6832 45.3592C87.4119 45.3592 86.8468 45.0767 87.2 44.5822C87.6944 43.7347 91.014 44.1585 96.1699 45.8536ZM90.8727 47.4781C92.4972 48.255 96.3112 51.0095 99.207 53.6228C104.504 58.355 107.329 62.5927 109.307 68.8081C110.084 71.2095 110.013 71.7039 108.671 73.6815L107.117 75.871L105.069 72.2689C103.586 69.7263 101.396 67.4661 97.7944 64.8529C94.2629 62.1689 91.7909 59.6263 89.7426 56.5186C86.3524 51.3627 84.3748 49.2438 81.8322 48.3256L80.0664 47.6193L81.8322 46.913C84.5161 45.783 87.5531 45.9242 90.8727 47.4781ZM105.917 49.6676C105.352 51.2214 105.21 51.2214 104.787 50.0207C104.434 49.2438 104.575 48.5375 105.21 48.1844C106.552 47.3368 106.694 47.69 105.917 49.6676ZM82.6091 50.5151C83.951 51.3627 86.5643 54.3997 88.4713 57.2249C90.8727 60.7564 93.3447 63.3696 96.6643 65.771C99.2776 67.678 102.385 70.7151 103.586 72.6221C105.987 76.2242 106.058 77.0011 103.868 75.8004C103.092 75.3766 102.315 75.2354 102.103 75.5179C101.255 76.2948 102.385 77.1423 104.222 77.1423C105.634 77.1423 105.917 77.4249 105.564 78.343C105.281 78.9787 104.504 81.3801 103.868 83.6402L102.668 87.7368L99.4895 87.313C97.7237 87.0305 96.523 87.1011 96.8056 87.3836C97.0881 87.7367 98.5713 88.1605 99.9839 88.3724C102.103 88.7255 102.738 89.1493 102.88 90.4207C103.162 92.0451 103.092 92.0451 100.761 90.8444C94.4748 87.6661 91.7909 84.7703 87.9063 77.1423C83.3154 68.2431 78.7245 57.8606 77.7357 54.3291C77.1706 52.4221 77.2412 51.5039 78.0888 50.3738C79.3601 48.5375 79.6426 48.5375 82.6091 50.5151ZM78.3007 59.8382C81.0552 67.0424 88.6126 82.5808 90.5196 85.0528C91.5084 86.3242 94.6867 88.7962 97.5825 90.5619C102.173 93.3165 102.95 94.0228 103.162 96.0004C103.586 99.3906 101.326 99.3906 95.6755 96.071C92.0734 93.9521 89.8133 91.8332 85.7874 86.8186C79.8545 79.4025 78.1594 76.3654 76.6056 70.2913C75.4755 65.9123 75.0517 53.6934 76.0405 54.8941C76.3231 55.3179 77.3825 57.5074 78.3007 59.8382ZM76.535 75.0235C79.8545 82.9339 88.5419 93.6696 94.3335 96.9892C97.7944 98.9668 98.0769 99.3199 97.1587 100.238C96.2405 101.227 95.6755 101.156 92.2853 99.5318C85.9993 96.5654 79.7839 89.22 75.2636 79.3319C73.5685 75.5885 73.0741 73.4696 72.7916 68.5256C72.6503 65.1354 72.721 61.1801 73.0741 59.6969C73.5685 57.3661 73.7098 57.9312 74.1336 63.7228C74.4867 68.5962 75.1224 71.7039 76.535 75.0235ZM169.483 63.7228C173.368 65.771 175.981 70.15 179.371 80.6738C184.386 96.1416 184.951 101.651 183.538 122.345C182.267 140.567 179.442 153.139 175.063 159.991C172.944 163.31 172.944 163.381 171.319 162.109L169.695 160.909L171.602 155.894C172.661 153.139 174.215 147.701 174.992 143.887C176.758 134.846 180.007 110.762 180.007 106.312C180.007 99.885 172.591 72.2689 169.554 67.2543C168.989 66.2654 167.647 64.7822 166.658 63.9347C164.398 61.9571 165.74 61.8158 169.483 63.7228ZM164.963 64.4291C167.717 66.0535 168.777 68.0312 171.531 76.5773C176.264 91.0563 178.171 99.7437 178.1 106.807C178.1 114.858 174.922 138.519 172.591 147.63C170.684 155.329 167.717 160.556 166.234 159.002C165.387 158.154 165.457 157.236 166.587 153.281C170.189 140.285 170.189 123.122 166.587 93.7402C163.974 71.9864 163.197 67.3249 161.926 65.3473C161.361 64.4997 160.937 63.5815 160.937 63.3696C160.937 62.5927 162.773 63.0871 164.963 64.4291ZM160.513 65.6298C161.785 68.2431 162.067 69.7969 163.762 83.1458C168.141 117.119 168.777 130.397 166.94 143.463C165.952 149.961 165.457 152.504 164.115 156.742C163.903 157.448 163.409 157.448 161.996 156.812C159.736 155.823 159.736 153.987 161.714 143.746C163.409 134.988 163.338 123.828 161.361 107.866C158.606 85.3354 157.405 74.1053 157.405 70.1501C157.405 63.6522 158.606 61.9571 160.513 65.6298ZM177.747 68.2431C182.691 73.6109 185.587 80.6738 188.341 94.4465C190.46 104.9 190.743 107.442 190.672 118.39C190.672 133.505 188.2 144.664 182.126 157.307C180.219 161.191 178.171 165.005 177.605 165.711C176.546 167.053 176.475 167.053 175.133 165.853C173.721 164.581 173.721 164.511 175.345 162.321C181.349 154.411 184.739 137.53 185.445 111.751C185.798 98.1899 185.728 97.8367 183.68 89.8556C180.854 79.0493 177.394 69.7969 175.275 67.1836C172.52 63.9347 174.568 64.7822 177.747 68.2431ZM155.852 69.8675C155.852 72.1277 157.194 85.4766 158.747 99.6025C160.372 113.728 161.643 127.501 161.643 130.185C161.643 134.705 160.372 144.876 158.818 152.716L158.182 155.894L158.465 152.857C158.677 151.091 158.536 149.891 158.112 149.891C157.759 149.891 157.405 151.021 157.405 152.363C157.405 154.481 157.194 154.835 155.71 154.835C153.521 154.835 153.097 152.363 154.015 144.24C154.51 140.002 154.51 135.623 153.874 129.408C153.168 122.486 153.168 119.026 153.803 113.375C154.439 108.149 154.439 104.335 153.874 99.2493C153.521 95.4353 152.885 89.4319 152.461 85.971C151.755 79.0493 152.32 72.7633 154.086 68.455C154.722 67.0424 155.357 65.8417 155.498 65.8417C155.64 65.8417 155.781 67.678 155.852 69.8675ZM150.978 69.8675C147.941 74.741 146.034 81.5214 146.034 87.7368C146.105 122.698 146.599 153.21 147.023 153.916C147.376 154.552 147.235 154.835 146.529 154.835C145.752 154.835 145.399 154.199 145.399 152.716C145.399 149.82 143.986 150.032 143.915 152.857C143.845 154.552 143.633 154.128 143.209 151.303C142.856 149.184 142.644 134.564 142.785 118.814C143.068 93.2458 143.28 89.5731 144.551 83.8521C146.175 76.648 148.153 71.8452 150.766 68.6668C153.38 65.6298 153.45 66.0536 150.978 69.8675ZM121.385 68.3843C121.385 68.5962 120.184 69.2319 118.771 69.7969C114.534 71.6333 111.708 74.1759 110.225 77.7074C108.248 82.3689 107.047 88.8668 107.4 93.9521C107.541 97.6955 107.471 98.3311 106.411 98.3311C104.787 98.3311 104.222 96.071 104.292 90.5619C104.434 81.3095 109.166 72.834 116.017 69.6557C119.548 68.0312 121.385 67.5368 121.385 68.3843ZM112.203 70.1501C112.203 70.5738 111.92 70.6445 111.496 70.4326C111.143 70.2207 110.79 69.6557 110.79 69.3025C110.79 68.8787 111.143 68.8081 111.496 69.02C111.92 69.2319 112.203 69.7969 112.203 70.1501ZM119.689 72.4102C117.288 75.5885 115.31 81.5214 114.251 88.5843C113.827 91.8332 113.05 95.2234 112.485 96.2123C111.073 99.1081 111.638 100.591 115.24 103.487C117.076 104.97 119.548 107.513 120.749 109.137C128.518 119.802 134.945 140.426 134.592 153.705C134.451 159.355 133.109 160.767 132.403 156.106C132.12 154.411 130.849 150.385 129.436 147.065C125.199 136.683 123.715 132.163 121.455 122.769C118.983 112.104 116.864 107.442 112.768 103.416C111.143 101.792 110.154 100.45 110.649 100.45C111.143 100.45 111.496 100.097 111.496 99.7437C111.496 99.3199 111.285 99.1081 111.002 99.1081C108.954 99.4612 108.671 98.8255 108.671 93.5283C108.742 83.0046 111.355 76.0829 116.723 72.4808C121.243 69.4438 121.95 69.4438 119.689 72.4102ZM128.236 73.8228C129.083 75.3766 129.436 77.5661 129.366 80.6738C129.295 86.1123 127.388 90.9857 121.95 99.2493L118.347 104.758L116.158 102.781C114.957 101.721 113.898 100.803 113.827 100.803C113.615 100.733 116.229 85.7591 117.076 81.8745C118.701 74.741 122.938 69.3731 125.693 70.8564C126.399 71.2095 127.6 72.5515 128.236 73.8228ZM131.767 75.5179C133.109 78.8375 132.897 86.1829 131.273 91.4095C129.719 96.4241 126.964 101.015 123.292 104.617C118.913 108.784 119.195 106.383 123.927 98.8962C131.131 87.5249 132.756 79.8969 129.436 73.399C128.306 71.2095 128.306 71.2095 129.507 72.1983C130.213 72.7633 131.202 74.2466 131.767 75.5179ZM151.049 75.5885C150.413 79.12 150.484 80.6738 152.32 99.6731C152.673 103.063 152.603 108.855 152.179 113.305C151.685 118.955 151.755 123.263 152.391 129.267C153.097 135.765 153.097 138.872 152.461 143.816C151.967 147.277 151.755 151.162 151.967 152.433C152.391 154.764 152.32 154.835 150.484 154.411C149.424 154.128 148.436 153.775 148.224 153.634C148.082 153.493 147.871 137.389 147.871 117.895C147.8 91.4801 148.012 81.5214 148.647 78.9081C150.554 71.2095 152.391 68.8081 151.049 75.5885ZM134.945 89.5731C133.886 97.4836 130.99 102.71 124.987 107.725C121.314 110.762 120.89 109.137 124.422 105.465C130.354 99.32 134.027 91.1976 134.168 84.064C134.239 80.6032 134.239 80.4619 134.945 82.3689C135.44 83.7815 135.51 85.971 134.945 89.5731ZM143.28 83.2871C143.209 84.9822 142.079 85.3353 139.042 84.6291L135.864 83.9228L138.689 83.4284C142.926 82.7927 143.28 82.7221 143.28 83.2871ZM142.291 86.5361C142.361 86.6067 142.22 88.8668 141.938 91.6213L141.514 96.5654L138.901 96.7773C137.417 96.9186 136.217 97.3423 136.217 97.7661C136.217 98.1899 137.135 98.3311 138.689 98.0486L141.161 97.5542V103.84C141.161 107.301 141.373 111.186 141.585 112.457C142.079 114.647 142.008 114.717 139.748 114.435C138.547 114.364 137.417 114.505 137.347 114.929C137.347 115.282 138.336 115.706 139.607 115.847C141.867 116.059 141.938 116.13 141.726 119.026C141.514 121.851 141.373 121.992 139.113 122.133C137.771 122.274 136.429 121.992 136.146 121.498C135.722 120.862 134.875 121.003 132.615 121.851C130.99 122.486 129.578 122.981 129.578 122.839C129.507 122.769 128.589 120.791 127.459 118.46L125.481 114.293L127.882 112.316C129.931 110.621 130.072 110.409 128.73 110.338C126.258 110.338 126.258 108.572 128.73 106.171L130.99 103.981L133.533 105.747C136.358 107.654 136.923 107.866 136.923 106.877C136.923 106.454 135.722 105.535 134.239 104.688L131.555 103.205L133.321 99.32C135.016 95.7179 135.299 95.506 137.488 95.7179C140.313 96.0004 140.172 94.5172 137.347 94.2346C135.934 94.0228 135.51 93.6696 135.793 92.8927C136.005 92.3276 136.217 90.4207 136.217 88.6549V85.406L139.183 85.9004C140.808 86.1829 142.22 86.4654 142.291 86.5361ZM236.581 88.9375C238.064 93.3165 237.57 102.074 235.451 109.632C231.778 123.122 230.295 129.902 229.589 137.248C228.176 150.667 220.477 167.76 211.437 177.295C205.716 183.369 200.631 186.406 192.65 188.454C186.434 190.079 184.951 190.149 184.951 188.666C184.951 188.313 189.189 184.923 194.345 181.109C205.433 172.845 211.578 166.488 214.545 160.202C219.206 150.456 224.362 130.538 226.975 112.104C229.589 93.4577 231.637 86.3242 234.321 86.3242C235.31 86.3242 235.945 87.1011 236.581 88.9375ZM229.801 90.6325C228.105 95.2941 226.834 101.721 225.21 113.87C222.667 132.092 216.381 154.552 211.649 162.463C208.753 167.195 202.538 173.269 194.839 178.919C191.519 181.321 187.988 184.075 186.929 185.064C185.869 186.053 184.81 186.688 184.527 186.476C183.891 185.77 185.587 183.086 186.717 183.086C187.917 183.086 188.129 181.886 186.999 181.532C186.575 181.391 188.27 179.555 190.743 177.436C212.073 159.143 217.229 150.173 220.619 125.877C223.938 102.145 224.998 97.2717 228.529 90.35C230.577 86.1829 231.284 86.3242 229.801 90.6325ZM240.889 92.8927C242.161 97.413 241.808 107.019 240.112 115.282C238.064 124.888 232.555 150.244 231.072 156.6C229.235 164.723 227.187 168.184 220.76 174.399C211.013 183.722 199.43 190.644 192.155 191.35C189.612 191.632 188.412 191.562 188.694 191.067C188.977 190.644 190.601 190.149 192.296 190.008C199.854 189.16 210.589 181.886 216.734 173.551C220.548 168.395 225.351 158.578 228.247 149.891C230.154 144.381 231.001 140.356 231.566 134.211C232.061 128.278 233.049 123.334 235.098 116.695C239.477 102.004 240.042 95.7178 237.57 88.0899C237.146 86.8186 237.287 86.8892 238.559 88.3018C239.335 89.22 240.395 91.3388 240.889 92.8927ZM226.128 92.4689C223.656 97.4836 221.678 106.03 220.266 117.401C216.946 144.593 213.626 152.928 201.196 165.429C197.099 169.525 191.802 174.681 189.401 176.942C186.929 179.202 184.951 181.391 184.951 181.744C184.951 182.097 184.668 182.38 184.245 182.38C182.973 182.38 183.538 179.555 185.445 176.659C186.434 175.105 189.754 171.786 192.791 169.314C204.445 159.637 208.824 150.314 214.686 123.051C217.723 108.502 220.407 99.8144 223.515 94.0934C225.139 91.1269 227.682 87.7368 228.317 87.7368C228.388 87.7368 227.399 89.8556 226.128 92.4689ZM244.562 94.9409C245.833 99.0374 245.975 105.747 244.986 113.658C243.432 124.888 239.265 148.972 237.852 154.128C233.614 169.667 221.678 182.592 203.738 190.856C195.898 194.458 192.084 195.305 188.765 194.175C187.282 193.751 185.94 192.904 185.798 192.339C185.516 191.562 185.798 191.491 186.787 191.915C187.564 192.268 189.471 192.621 191.096 192.833C197.24 193.469 211.225 185.629 221.608 175.67C228.247 169.243 230.719 165.076 232.555 156.953C241.949 115 243.079 109.208 243.149 101.863C243.22 95.4353 243.008 94.0227 241.666 91.4095C239.618 87.5955 239.618 86.8186 241.737 89.4319C242.655 90.5619 243.926 93.0339 244.562 94.9409ZM212.991 95.5766C216.805 96.9892 221.113 102.569 217.652 101.58C216.946 101.439 215.745 101.086 214.968 100.874C214.121 100.662 212.92 99.5318 212.284 98.3311C211.578 97.2011 210.731 96.2123 210.307 96.2123C209.954 96.2123 209.671 95.8591 209.671 95.506C209.671 94.5878 210.519 94.5878 212.991 95.5766ZM212.002 100.591C212.991 102.286 214.545 104.335 215.533 105.253C216.946 106.595 217.158 107.301 216.734 108.784C216.31 110.479 215.887 110.691 213.697 110.55C210.448 110.338 210.307 111.468 213.415 112.033L215.816 112.457L214.827 116.13C214.333 118.178 213.909 120.438 213.909 121.144C213.909 122.063 213.556 122.345 212.92 122.133C210.307 121.144 206.634 120.791 207.129 121.568C207.411 121.992 208.894 122.557 210.448 122.769C213.273 123.263 213.909 124.393 212.567 126.512C212.143 127.219 211.225 126.724 208.753 124.393C206.14 121.851 205.504 120.65 205.08 117.966C204.445 113.658 205.716 98.6136 206.846 97.2717C208.047 95.7885 209.883 96.9892 212.002 100.591ZM204.021 103.275C202.396 116.907 203.597 122.345 209.036 126.724C212.284 129.337 212.567 130.821 209.883 130.821C207.27 130.821 201.902 125.1 200.277 120.579C198.936 116.695 198.724 109.914 199.783 106.242C200.419 103.77 203.95 97.3423 204.374 97.7661C204.515 97.9074 204.303 100.379 204.021 103.275ZM108.601 101.439C113.192 103.84 116.864 110.267 119.195 119.873C122.161 132.021 123.645 136.824 126.399 143.393C128.024 147.065 129.86 152.363 130.566 155.117C131.696 159.496 131.696 160.273 130.849 161.191C129.931 162.109 129.648 162.039 128.447 160.485C127.671 159.496 125.481 155.541 123.503 151.656C120.254 145.088 117.994 138.378 113.262 120.579C110.296 109.42 108.601 105.323 105.564 102.004C103.021 99.1787 102.95 99.0374 104.645 99.6731C105.705 100.097 107.471 100.874 108.601 101.439ZM104.434 102.569C106.764 104.9 108.459 108.926 111.496 119.873C117.712 142.404 118.771 145.512 121.879 151.868C123.645 155.541 125.905 159.425 126.894 160.626C128.447 162.463 128.518 162.816 127.6 163.734C126.682 164.723 126.046 164.581 121.95 162.674C112.768 158.295 108.177 153.422 105.14 144.593C103.162 139.014 97.3706 110.833 97.3706 107.019C97.3706 101.933 101.326 99.4612 104.434 102.569ZM217.511 102.569C217.864 102.569 218.147 103.063 218.147 103.628C218.147 105.112 217.158 104.97 215.604 103.134C214.333 101.721 214.333 101.651 215.533 102.074C216.24 102.357 217.158 102.569 217.511 102.569ZM93.6979 107.019C93.0622 109.067 93.0622 113.305 93.6979 124.393C95.393 153.139 98.6419 159.072 119.478 170.373C121.738 171.644 122.02 172.068 121.314 172.916C118.983 175.67 108.106 171.15 102.173 164.864C94.8279 157.236 91.4377 147.984 90.237 132.657C89.3189 121.074 90.0251 113.305 92.4265 107.654C94.2629 103.416 94.8986 103.134 93.6979 107.019ZM98.5007 122.698C99.8426 129.691 101.608 137.742 102.315 140.567C105.564 152.363 110.79 159.072 120.254 163.31C123.15 164.652 125.552 165.923 125.552 166.135C125.552 166.347 124.916 167.265 124.139 168.184L122.727 169.949L116.582 166.771C108.954 162.886 102.385 156.883 99.8426 151.515C97.5119 146.712 96.2405 139.649 95.2517 126.865C94.4042 115.282 94.3335 108.572 95.1105 106.1C95.5342 104.547 95.6049 104.688 95.8168 107.16C95.8874 108.714 97.0881 115.706 98.5007 122.698ZM126.117 112.104C125.41 112.881 125.128 112.881 124.28 112.104C123.433 111.256 123.433 110.903 124.21 109.985C125.128 108.855 125.269 108.855 126.046 109.985C126.752 110.903 126.752 111.398 126.117 112.104ZM198.37 118.107C198.37 120.156 200.843 125.1 203.385 128.207C204.798 129.902 206.634 131.174 208.824 131.88L212.143 132.939L209.177 132.798C205.222 132.586 204.586 133.363 208.259 133.999C210.377 134.352 211.084 134.776 210.801 135.482C210.589 136.047 209.742 138.731 208.894 141.415C208.117 144.17 207.27 146.359 207.129 146.359C206.917 146.359 205.998 145.865 205.08 145.229C204.021 144.523 203.315 144.381 203.315 144.805C203.315 145.229 204.021 146.006 204.939 146.43C205.787 146.853 206.563 147.348 206.705 147.418C207.129 147.772 204.656 152.716 203.95 152.716C203.597 152.716 202.255 152.221 201.125 151.586C199.924 151.021 198.653 150.597 198.159 150.809C197.735 150.95 198.865 151.727 200.701 152.645L203.95 154.199L201.831 157.73L199.642 161.191L197.594 159.708C196.393 158.86 195.263 158.437 194.98 158.719C194.486 159.143 196.322 160.838 197.947 161.403C198.37 161.615 197.17 163.381 195.192 165.358L191.661 168.96L189.471 166.347C188.2 164.864 186.999 163.875 186.717 164.087C186.505 164.37 187.211 165.641 188.412 167.053C190.46 169.384 190.531 169.525 189.33 170.656C188.27 171.574 181.561 175.317 180.925 175.317C180.784 175.317 180.713 174.893 180.713 174.399C180.713 173.904 179.866 172.351 178.877 170.867L177.111 168.184L178.736 166.277C179.654 165.217 181.137 162.674 182.055 160.697C183.68 157.236 183.821 157.095 185.233 158.013C186.858 159.214 187.776 159.355 187.776 158.507C187.776 158.154 186.999 157.518 186.081 157.024C184.457 156.106 184.457 156.035 185.587 153.351C186.434 151.162 186.999 150.597 188.129 150.879C193.497 152.151 193.78 152.151 193.073 151.444C192.72 151.021 191.308 150.456 190.036 150.102C187.423 149.467 187.423 149.325 188.553 144.735C189.33 141.486 189.471 141.344 191.59 141.486C192.791 141.627 193.921 141.415 194.133 141.062C194.345 140.638 193.426 140.285 192.155 140.144C190.036 139.932 189.824 139.72 190.177 138.166C190.46 137.248 190.813 134.988 191.096 133.222L191.519 129.973L194.98 130.397C196.887 130.679 198.37 130.609 198.37 130.185C198.37 129.832 196.958 129.337 195.192 129.126L192.014 128.631V123.758C192.014 118.743 192.438 118.107 195.616 118.107C196.322 118.107 196.958 117.754 196.958 117.401C196.958 116.977 197.311 116.695 197.664 116.695C198.088 116.695 198.37 117.33 198.37 118.107ZM135.51 123.122C135.51 123.546 136.57 123.758 138.194 123.616C141.231 123.405 141.161 123.334 141.161 127.995C141.161 131.456 141.09 131.527 139.113 131.527C137.982 131.527 136.923 131.809 136.782 132.233C136.711 132.586 135.793 133.01 134.875 133.081C133.462 133.293 133.109 132.798 132.191 129.761C131.626 127.784 130.849 125.877 130.425 125.382C129.931 124.746 130.354 124.252 132.12 123.475C135.016 122.204 135.51 122.133 135.51 123.122ZM141.161 137.46C141.161 141.556 141.019 141.98 139.607 142.404C135.864 143.393 134.804 142.969 134.733 140.497C134.733 139.296 134.451 137.601 134.168 136.824C133.674 135.694 134.027 135.2 135.793 134.281C136.994 133.646 138.689 133.081 139.607 133.01C141.09 132.939 141.161 133.222 141.161 137.46ZM141.443 148.054C141.655 150.173 142.079 152.363 142.291 152.928C142.573 153.705 141.938 154.411 140.454 155.188C138.053 156.459 137.347 156.177 136.57 153.563C136.146 152.221 136.358 152.009 138.336 152.009C139.607 152.009 140.384 151.727 140.101 151.303C139.889 150.879 138.901 150.597 137.912 150.597C136.64 150.597 136.217 150.244 136.217 148.972C136.217 148.125 136.005 146.712 135.793 145.794C135.369 144.381 135.581 144.24 138.124 144.24H140.949L141.443 148.054ZM136.923 156.6C136.923 157.165 136.64 157.66 136.217 157.66C135.864 157.66 135.51 157.165 135.51 156.6C135.51 156.035 135.864 155.541 136.217 155.541C136.64 155.541 136.923 156.035 136.923 156.6ZM155.004 158.578C156.346 160.061 158.324 163.875 160.019 168.325C167.929 188.878 168.706 203.004 163.974 238.318L162.773 247.359H160.584H158.324L157.829 233.939C157.547 226.594 156.84 217.412 156.275 213.669C153.945 198.13 153.168 191.986 152.179 179.555C151.119 167.336 149.636 159.072 148.153 157.236C147.164 156.035 148.365 155.4 150.696 155.823C151.826 156.035 153.803 157.307 155.004 158.578ZM162.703 159.355C168.212 162.18 169.695 164.935 171.955 176.165C176.122 196.93 176.829 212.751 174.357 227.23C173.58 231.82 172.732 238.177 172.45 241.426L172.026 247.359H168.141H164.257L164.751 244.534C168.565 220.732 169.342 196.93 166.799 185.205C164.751 176.165 160.019 162.957 157.405 159.214C155.357 156.247 155.287 156.177 156.84 156.6C157.759 156.883 160.372 158.084 162.703 159.355ZM141.655 158.931C139.254 161.403 138.618 164.793 137.276 180.826C136.499 190.008 136.358 198.272 136.64 209.784C137.064 225.04 137.629 229.772 139.96 238.53C140.525 240.437 141.161 243.121 141.373 244.322L141.867 246.653H138.406H134.945L134.451 243.616C134.168 241.991 132.403 235.917 130.496 230.196C126.117 216.776 125.41 212.962 125.41 201.803C125.41 182.804 131.202 164.793 139.254 159.002C142.856 156.388 144.127 156.388 141.655 158.931ZM147.376 158.86C148.789 162.392 150.272 172.633 151.049 183.439C151.473 189.231 152.391 197.989 153.168 202.862C155.357 216.918 155.993 222.921 156.487 235.493L156.911 247.359H154.722H152.461V241.85C152.461 234.01 151.261 222.215 148.859 206.394C144.48 177.718 142.926 160.132 144.692 158.013C145.964 156.53 146.529 156.671 147.376 158.86ZM135.016 161.403C131.979 164.652 130.284 167.83 128.236 174.258C124.916 184.57 123.927 191.138 123.927 202.156C123.998 213.881 124.704 217.907 129.436 231.962C131.202 237.118 132.826 242.627 133.109 244.11C133.533 246.582 133.462 246.794 132.403 246.441C131.696 246.158 130.425 245.946 129.578 245.946C128.165 245.946 127.671 244.816 124.704 234.787C118.983 215.364 118.206 211.126 118.206 197.918C118.206 187.748 118.418 185.558 119.831 180.614C122.444 171.715 125.693 166.912 132.615 161.474C136.994 158.013 138.194 157.942 135.016 161.403ZM145.469 193.257C149.919 223.839 150.343 227.441 150.837 237.259L151.261 247.359H147.588C143.28 247.359 143.633 247.924 140.808 235.776C139.254 229.419 138.759 225.393 138.689 218.825C138.547 214.163 138.265 206.747 138.053 202.509C137.488 193.539 139.748 164.935 141.302 161.544C142.15 159.637 142.291 160.344 142.715 168.96C143.068 174.116 144.268 185.064 145.469 193.257ZM174.498 167.053C182.338 176.518 184.668 185.488 184.033 203.922C183.609 215.293 183.256 217.836 178.736 243.827C178.241 246.865 178.1 247.006 175.487 247.218C173.156 247.43 172.873 247.288 173.226 246.158C173.438 245.452 173.933 241.779 174.357 238.036C174.71 234.222 175.345 229.772 175.769 228.148C178.312 217.483 177.959 201.662 174.71 183.369C172.167 168.607 171.602 166.418 169.695 163.663C166.94 159.567 170.119 161.827 174.498 167.053ZM184.245 176.377C183.75 176.942 183.044 177.224 182.62 176.942C182.196 176.659 182.408 176.165 183.185 175.6C184.81 174.399 185.445 174.893 184.245 176.377ZM134.239 247.853C147.871 248.56 183.821 248.56 186.999 247.924L189.33 247.359L188.906 251.455C188.624 253.645 188.059 257.247 187.635 259.437L186.929 263.462L179.018 264.31C169.13 265.44 140.313 265.369 130.92 264.169L123.927 263.251L122.656 256.541C121.102 247.995 121.102 246.37 122.444 246.865C123.009 247.147 128.306 247.571 134.239 247.853ZM142.785 266.57C152.391 267.206 157.9 267.206 168.071 266.57C175.204 266.076 181.843 265.511 182.761 265.228C184.103 264.875 184.315 265.016 184.033 266.146C183.821 266.853 182.408 275.964 180.996 286.346L178.382 305.204L175.133 306.264C169.201 308.171 161.149 308.877 153.168 308.1C144.975 307.323 134.098 305.346 133.18 304.569C132.473 303.933 131.273 298.141 128.447 280.978C125.764 264.734 125.764 264.734 128.447 265.228C129.578 265.511 136.005 266.076 142.785 266.57Z" fill="black"/>
<path id="Vector_2" d="M92.6384 81.027C92.6384 81.5921 92.9209 81.8746 93.2741 81.6627C93.6272 81.4508 93.6979 80.9564 93.486 80.6032C92.8503 79.6851 92.6384 79.8263 92.6384 81.027Z" fill="black"/>
<path id="Vector_3" d="M109.731 149.184C110.437 149.961 111.143 150.597 111.355 150.597C111.567 150.597 111.143 149.961 110.437 149.184C109.731 148.407 109.024 147.772 108.813 147.772C108.601 147.772 109.024 148.407 109.731 149.184Z" fill="black"/>
<path id="Vector_4" d="M190.601 155.117C190.601 155.258 191.166 155.823 191.873 156.318C192.932 157.236 193.003 157.165 192.085 156.035C191.166 154.905 190.601 154.552 190.601 155.117Z" fill="black"/>
<path id="Vector_5" d="M252.049 128.631C252.049 129.055 252.331 129.549 252.755 129.761C253.179 129.973 253.25 129.691 253.038 129.126C252.543 127.854 252.049 127.642 252.049 128.631Z" fill="black"/>
</g>
</svg>
